Coordinates
version=1
nRows=7
nColumns=63
inDegrees=yes

Units are S.I. units (second, meters, Newtons, ...)
If the header above contains a line with 'inDegrees', this indicates whether rotational values are in degrees (yes) or radians (no).

endheader
time	pelvis_tilt	pelvis_list	pelvis_rotation	pelvis_tx	pelvis_ty	pelvis_tz	hip_flexion_r	hip_adduction_r	hip_rotation_r	knee_angle_r	knee_angle_r_beta	ankle_angle_r	subtalar_angle_r	mtp_angle_r	hip_flexion_l	hip_adduction_l	hip_rotation_l	knee_angle_l	knee_angle_l_beta	ankle_angle_l	subtalar_angle_l	mtp_angle_l	L5_S1_Flex_Ext	L5_S1_Lat_Bending	L5_S1_axial_rotation	L4_L5_Flex_Ext	L4_L5_Lat_Bending	L4_L5_axial_rotation	L3_L4_Flex_Ext	L3_L4_Lat_Bending	L3_L4_axial_rotation	L2_L3_Flex_Ext	L2_L3_Lat_Bending	L2_L3_axial_rotation	L1_L2_Flex_Ext	L1_L2_Lat_Bending	L1_L2_axial_rotation	L1_T12_Flex_Ext	L1_T12_Lat_Bending	L1_T12_axial_rotation	Abs_r3	Abs_r2	Abs_r1	Abs_t1	Abs_t2	neck_flexion	neck_bending	neck_rotation	arm_flex_r	arm_add_r	arm_rot_r	elbow_flex_r	pro_sup_r	wrist_flex_r	wrist_dev_r	arm_flex_l	arm_add_l	arm_rot_l	elbow_flex_l	pro_sup_l	wrist_flex_l	wrist_dev_l
      0.00000000	      2.49350842	     -1.21192886	    100.18585253	      0.21554847	      0.81923686	      0.58878771	     -8.72593653	      2.23847055	     10.59176417	      0.34440690	      0.00601103	     21.59310385	    -14.23490503	      0.00000000	     -7.62301381	      0.56366551	     -1.92059102	      0.29569616	      0.00516087	     32.90479518	      2.52115687	      0.00000000	     -0.16013328	      0.39980642	      0.44057844	     -0.29738351	      0.53174254	      0.46811459	     -0.26308296	      0.97208933	      0.46811459	     -0.18301632	      0.97208933	      0.38550614	     -0.14869976	      0.81528525	      0.35796998	     -0.09150015	      0.61930014	      0.33043383	     -1.14381599	      4.52269018	      2.45036512	      0.00000000	      0.00000000	     13.57285540	     -1.41665659	     17.51011644	      8.43588002	    -11.81910249	    149.30425524	      3.09697786	      4.22439903	     -3.15406791	     -4.92598722	      4.53748326	    -14.83015683	     57.64784090	     25.29860177	     87.11516859	     -8.25358158	      5.34327835
      0.02500000	      2.89979436	     -1.15302421	     99.21405449	      0.21728878	      0.81943874	      0.58663548	     -8.57799917	      2.59091442	     10.87034164	      0.35668611	      0.00622535	     22.37725411	    -13.76986958	      0.00000000	     -7.91655389	      0.18434852	     -2.46608946	      0.28863691	      0.00503766	     32.86955264	      2.11020646	      0.00000000	     -0.14205224	      0.44472140	      0.76922393	     -0.26380521	      0.59147946	      0.81730043	     -0.23337763	      1.08129561	      0.81730043	     -0.16235151	      1.08129561	      0.67307094	     -0.13190971	      0.90687588	      0.62499444	     -0.08116865	      0.68887345	      0.57691795	     -1.01466494	      5.03077742	      4.27819274	      0.00000000	      0.00000000	     13.60410445	     -1.75661904	     16.68350269	      7.67723766	    -11.95429171	    150.03938982	      2.46317456	      3.69984407	     -3.37799052	     -5.11570943	      4.87421894	    -14.69332011	     57.19812878	     26.02150407	     87.90559739	     -9.81156605	      4.85498263
      0.05000000	      3.17835530	     -1.07669525	     98.80018290	      0.21847138	      0.81952870	      0.58485128	     -8.58190456	      2.90781768	     10.85689621	      0.36183483	      0.00631521	     22.71645938	    -13.47905337	      0.00000000	     -8.18029609	     -0.14791267	     -2.64362837	      0.28864382	      0.00503779	     32.95494494	      1.95569703	      0.00000000	     -0.12698652	      0.46976975	      0.92383572	     -0.23582666	      0.62479377	      0.98157545	     -0.20862615	      1.14219818	      0.98157545	     -0.14513289	      1.14219818	      0.80835626	     -0.11791968	      0.95795448	      0.75061652	     -0.07256010	      0.72767335	      0.69287679	     -0.90705200	      5.31412940	      5.13809713	      0.00000000	      0.00000000	     13.43280465	     -1.71191681	     16.44308279	      7.20794290	    -11.94757346	    150.01970903	      2.10481599	      3.40382145	     -3.55526093	     -5.36181124	      5.17140028	    -14.81821996	     57.05993458	     26.63412963	     88.01268937	    -10.37700808	      4.38484039
      0.07500000	      3.20939758	     -1.10992466	     98.76394912	      0.21858734	      0.81949257	      0.58384033	     -8.56447358	      2.95037796	     10.82727532	      0.37078320	      0.00647139	     22.78412766	    -13.49193677	      0.00000000	     -8.28288540	     -0.18307538	     -2.69422179	      0.28252741	      0.00493103	     32.99358322	      1.91520340	      0.00000000	     -0.10834608	      0.47009573	      0.92949057	     -0.20120950	      0.62522733	      0.98758373	     -0.17800177	      1.14299077	      0.98758373	     -0.12382873	      1.14299077	      0.81330425	     -0.10061017	      0.95861922	      0.75521109	     -0.06190895	      0.72817829	      0.69711793	     -0.77390519	      5.31781697	      5.16954770	      0.00000000	      0.00000000	     13.39019114	     -1.72404794	     16.44392269	      7.20892853	    -11.87451672	    150.00366680	      2.09896377	      3.37083597	     -3.55526319	     -5.39799679	      5.48128396	    -14.79863551	     56.98313528	     26.71586391	     88.00978123	    -10.43118392	      4.33303104
      0.10000000	      3.45975611	     -1.10294928	     97.92345507	      0.22000724	      0.81935013	      0.58175050	     -8.61517833	      3.13578170	     11.14773915	      0.38027229	      0.00663700	     22.76343006	    -12.80264412	      0.00000000	     -8.55331940	     -0.34849989	     -3.26735923	      0.27730535	      0.00483989	     33.12480485	      1.30007860	      0.00000000	     -0.06438584	      0.49056625	      1.11727155	     -0.11957094	      0.65245311	      1.18710102	     -0.10577950	      1.19276278	      1.18710102	     -0.07358658	      1.19276278	      0.97761261	     -0.05978869	      1.00036269	      0.90778314	     -0.03679007	      0.75988712	      0.83795366	     -0.45990162	      5.54938352	      6.21392919	      0.00000000	      0.00000000	     12.77004802	     -1.54147434	     15.94827020	      6.75307073	    -11.99008416	    148.63910023	      2.11790701	      2.22960542	     -3.33889465	     -6.77423087	      5.36425290	    -14.83329096	     56.34510883	     26.99777450	     87.84433131	    -11.24449895	      2.92141683
      0.12500000	      3.54465270	     -1.08418394	     97.87173313	      0.22026697	      0.81922861	      0.58043143	     -8.75343124	      3.26108222	     11.15021042	      0.38305862	      0.00668563	     22.45811355	    -12.80530896	      0.00000000	     -8.72359427	     -0.44888243	     -3.32590158	      0.27366580	      0.00477637	     33.20836286	      1.04676759	      0.00000000	     -0.03509057	      0.49640855	      1.09086224	     -0.06516670	      0.66022337	      1.15904113	     -0.05765030	      1.20696775	      1.15904113	     -0.04010501	      1.20696775	      0.95450446	     -0.03258510	      1.01227632	      0.88632557	     -0.02005075	      0.76893685	      0.81814668	     -0.25064842	      5.61547282	      6.06704853	      0.00000000	      0.00000000	     12.36845629	     -1.54036669	     16.07085941	      6.73623211	    -11.97501590	    147.38887312	      2.29730423	      1.85720780	     -2.92187688	     -7.37410436	      5.31700827	    -15.01630391	     55.57277828	     27.37879840	     87.34740905	    -10.96572348	      2.13115884
      0.15000000	      3.52702425	     -1.20216049	     97.90853518	      0.22011277	      0.81892364	      0.57954204	     -8.75884502	      3.24502370	     11.82506005	      0.37994667	      0.00663132	     21.66725698	    -14.03446535	      0.00000000	     -8.70588899	     -0.39677532	     -2.74903365	      0.27832931	      0.00485776	     33.08009550	     -0.08728519	      0.00000000	     -0.00007780	      0.49262124	      1.00553220	     -0.00014449	      0.65518624	      1.06837796	     -0.00012783	      1.19775927	      1.06837796	     -0.00008892	      1.19775927	      0.87984067	     -0.00007225	      1.00455322	      0.81699491	     -0.00004446	      0.76307029	      0.75414915	     -0.00055575	      5.57262994	      5.59246842	      0.00000000	      0.00000000	     12.33406356	     -1.32346159	     16.64865452	      6.96779336	    -12.11779369	    142.78426831	      3.18671372	      2.12703907	     -2.27790027	     -8.15501692	      4.15178808	    -14.93478786	     49.23314835	     28.60511948	     86.30406615	     -9.02985182	      2.02202292
